<?xml version="1.0" encoding="UTF-8" standalone="no"?>
<!DOCTYPE svg PUBLIC "-//W3C//DTD SVG 1.0//EN"
 "http://www.w3.org/TR/2001/REC-SVG-20010904/DTD/svg10.dtd" [
 <!ATTLIST svg xmlns:xlink CDATA #FIXED "http://www.w3.org/1999/xlink">
]>
<!-- Generated by Graphviz version 2.20.2 (Tue Mar &#160;2 19:03:41 UTC 2010)
     For user: (thepler) Todd Hepler -->
<!-- Title: _anonymous_0 Pages: 1 -->
<svg width="225pt" height="116pt"
 viewBox="0.00 0.00 225.00 116.00" xmlns="http://www.w3.org/2000/svg" xmlns:xlink="http://www.w3.org/1999/xlink">
<g id="graph0" class="graph" transform="scale(1 1) rotate(0) translate(4 112)">
<title>_anonymous_0</title>
<polygon style="fill:white;stroke:white;" points="-4,4 -4,-112 221,-112 221,4 -4,4"/>
<!-- disk_volume -->
<g id="node1" class="node"><title>disk_volume</title>
<polygon style="fill:white;stroke:black;" points="119,-72 119,-108 218,-108 218,-72 119,-72"/>
<text text-anchor="middle" x="168" y="-91.4" style="font-family:Times New Roman;font-size:14.00;">disk&#45;volume</text>
</g>
<!-- disk_allocation -->
<g id="node3" class="node"><title>disk_allocation</title>
<polygon style="fill:white;stroke:black;" points="0,-0 0,-36 114,-36 114,-0 0,-0"/>
<text text-anchor="middle" x="57" y="-19.4" style="font-family:Times New Roman;font-size:14.00;">disk&#45;allocation</text>
</g>
<!-- disk_volume&#45;&gt;disk_allocation -->
<g id="edge10" class="edge"><title>disk_volume&#45;&gt;disk_allocation</title>
<path style="fill:none;stroke:black;" d="M140,-72C126,-63 108,-52 93,-42"/>
<polygon style="fill:black;stroke:black;" points="93,-42 87.7,-32.4 89,-39 85,-36 85,-36 85,-36 89,-39 82.3,-39.6 93,-42 93,-42"/>
</g>
<!-- disk_group -->
<g id="node2" class="node"><title>disk_group</title>
<polygon style="fill:white;stroke:black;" points="13,-72 13,-108 101,-108 101,-72 13,-72"/>
<text text-anchor="middle" x="57" y="-91.4" style="font-family:Times New Roman;font-size:14.00;">disk&#45;group</text>
</g>
<!-- disk_group&#45;&gt;disk_volume -->
<g id="edge2" class="edge"><title>disk_group&#45;&gt;disk_volume</title>
<path style="fill:none;stroke:black;" d="M101,-90C104,-90 106,-90 109,-90"/>
<polygon style="fill:black;stroke:black;" points="109,-90.0001 119,-94.5 114,-90 119,-90 119,-90 119,-90 114,-90 119,-85.5 109,-90.0001 109,-90.0001"/>
</g>
<!-- disk_group&#45;&gt;disk_allocation -->
<g id="edge4" class="edge"><title>disk_group&#45;&gt;disk_allocation</title>
<path style="fill:none;stroke:black;" d="M57,-72C57,-64 57,-55 57,-46"/>
<polygon style="fill:black;stroke:black;" points="57.0001,-46 61.5,-36 57,-41 57,-36 57,-36 57,-36 57,-41 52.5,-36 57.0001,-46 57.0001,-46"/>
</g>
<!-- event -->
<g id="node4" class="node"><title>event</title>
<polygon style="fill:white;stroke:black;" points="132,-0 132,-36 188,-36 188,-0 132,-0"/>
<text text-anchor="middle" x="160" y="-19.4" style="font-family:Times New Roman;font-size:14.00;">event</text>
</g>
<!-- disk_allocation&#45;&gt;event -->
<g id="edge6" class="edge"><title>disk_allocation&#45;&gt;event</title>
<path style="fill:none;stroke:black;" d="M114,-18C120,-18 126,-18 132,-18"/>
</g>
<!-- event&#45;&gt;disk_group -->
<g id="edge8" class="edge"><title>event&#45;&gt;disk_group</title>
<path style="fill:none;stroke:black;" d="M135,-36C119,-47 99,-61 83,-72"/>
</g>
</g>
</svg>
