<?xml version="1.0" encoding="UTF-8" standalone="no"?>
<!DOCTYPE svg PUBLIC "-//W3C//DTD SVG 1.0//EN"
 "http://www.w3.org/TR/2001/REC-SVG-20010904/DTD/svg10.dtd" [
 <!ATTLIST svg xmlns:xlink CDATA #FIXED "http://www.w3.org/1999/xlink">
]>
<!-- Generated by Graphviz version 2.20.2 (Tue Mar &#160;2 19:03:41 UTC 2010)
     For user: (thepler) Todd Hepler -->
<!-- Title: _anonymous_0 Pages: 1 -->
<svg width="344pt" height="44pt"
 viewBox="0.00 0.00 344.00 44.00" xmlns="http://www.w3.org/2000/svg" xmlns:xlink="http://www.w3.org/1999/xlink">
<g id="graph0" class="graph" transform="scale(1 1) rotate(0) translate(4 40)">
<title>_anonymous_0</title>
<polygon style="fill:white;stroke:white;" points="-4,4 -4,-40 340,-40 340,4 -4,4"/>
<!-- disk_volume -->
<g id="node1" class="node"><title>disk_volume</title>
<polygon style="fill:white;stroke:black;" points="106,-0 106,-36 205,-36 205,-0 106,-0"/>
<text text-anchor="middle" x="155" y="-19.4" style="font-family:Times New Roman;font-size:14.00;">disk&#45;volume</text>
</g>
<!-- disk_allocation -->
<g id="node3" class="node"><title>disk_allocation</title>
<polygon style="fill:white;stroke:black;" points="222,-0 222,-36 336,-36 336,-0 222,-0"/>
<text text-anchor="middle" x="279" y="-19.4" style="font-family:Times New Roman;font-size:14.00;">disk&#45;allocation</text>
</g>
<!-- disk_volume&#45;&gt;disk_allocation -->
<g id="edge4" class="edge"><title>disk_volume&#45;&gt;disk_allocation</title>
<path style="fill:none;stroke:black;" d="M205,-18C207,-18 210,-18 212,-18"/>
<polygon style="fill:black;stroke:black;" points="212,-18.0001 222,-22.5 217,-18 222,-18 222,-18 222,-18 217,-18 222,-13.5 212,-18.0001 212,-18.0001"/>
</g>
<!-- disk_group -->
<g id="node2" class="node"><title>disk_group</title>
<polygon style="fill:white;stroke:black;" points="0,-0 0,-36 88,-36 88,-0 0,-0"/>
<text text-anchor="middle" x="44" y="-19.4" style="font-family:Times New Roman;font-size:14.00;">disk&#45;group</text>
</g>
<!-- disk_group&#45;&gt;disk_volume -->
<g id="edge2" class="edge"><title>disk_group&#45;&gt;disk_volume</title>
<path style="fill:none;stroke:black;" d="M88,-18C91,-18 93,-18 96,-18"/>
<polygon style="fill:black;stroke:black;" points="96,-18.0001 106,-22.5 101,-18 106,-18 106,-18 106,-18 101,-18 106,-13.5 96,-18.0001 96,-18.0001"/>
</g>
</g>
</svg>
