<?xml version="1.0" encoding="UTF-8" standalone="no"?>
<!DOCTYPE svg PUBLIC "-//W3C//DTD SVG 1.0//EN"
 "http://www.w3.org/TR/2001/REC-SVG-20010904/DTD/svg10.dtd" [
 <!ATTLIST svg xmlns:xlink CDATA #FIXED "http://www.w3.org/1999/xlink">
]>
<!-- Generated by Graphviz version 2.20.2 (Tue Mar &#160;2 19:03:41 UTC 2010)
     For user: (thepler) Todd Hepler -->
<!-- Title: _anonymous_0 Pages: 1 -->
<svg width="344pt" height="116pt"
 viewBox="0.00 0.00 344.00 116.00" xmlns="http://www.w3.org/2000/svg" xmlns:xlink="http://www.w3.org/1999/xlink">
<g id="graph0" class="graph" transform="scale(1 1) rotate(0) translate(4 112)">
<title>_anonymous_0</title>
<polygon style="fill:white;stroke:white;" points="-4,4 -4,-112 340,-112 340,4 -4,4"/>
<!-- disk_volume -->
<g id="node1" class="node"><title>disk_volume</title>
<polygon style="fill:white;stroke:black;" points="106,-72 106,-108 205,-108 205,-72 106,-72"/>
<text text-anchor="middle" x="155" y="-91.4" style="font-family:Times New Roman;font-size:14.00;">disk&#45;volume</text>
</g>
<!-- disk_allocation -->
<g id="node3" class="node"><title>disk_allocation</title>
<polygon style="fill:white;stroke:black;" points="222,-72 222,-108 336,-108 336,-72 222,-72"/>
<text text-anchor="middle" x="279" y="-91.4" style="font-family:Times New Roman;font-size:14.00;">disk&#45;allocation</text>
</g>
<!-- disk_volume&#45;&gt;disk_allocation -->
<g id="edge8" class="edge"><title>disk_volume&#45;&gt;disk_allocation</title>
<path style="fill:none;stroke:black;" d="M205,-90C207,-90 210,-90 212,-90"/>
<polygon style="fill:black;stroke:black;" points="212,-90.0001 222,-94.5 217,-90 222,-90 222,-90 222,-90 217,-90 222,-85.5 212,-90.0001 212,-90.0001"/>
</g>
<!-- disk_group -->
<g id="node2" class="node"><title>disk_group</title>
<polygon style="fill:white;stroke:black;" points="0,-72 0,-108 88,-108 88,-72 0,-72"/>
<text text-anchor="middle" x="44" y="-91.4" style="font-family:Times New Roman;font-size:14.00;">disk&#45;group</text>
</g>
<!-- disk_group&#45;&gt;disk_volume -->
<g id="edge2" class="edge"><title>disk_group&#45;&gt;disk_volume</title>
<path style="fill:none;stroke:black;" d="M88,-90C91,-90 93,-90 96,-90"/>
<polygon style="fill:black;stroke:black;" points="96,-90.0001 106,-94.5 101,-90 106,-90 106,-90 106,-90 101,-90 106,-85.5 96,-90.0001 96,-90.0001"/>
</g>
<!-- event -->
<g id="node4" class="node"><title>event</title>
<polygon style="fill:white;stroke:black;" points="133,-0 133,-36 189,-36 189,-0 133,-0"/>
<text text-anchor="middle" x="161" y="-19.4" style="font-family:Times New Roman;font-size:14.00;">event</text>
</g>
<!-- disk_allocation&#45;&gt;event -->
<g id="edge4" class="edge"><title>disk_allocation&#45;&gt;event</title>
<path style="fill:none;stroke:black;" d="M249,-72C231,-61 207,-47 189,-35"/>
</g>
<!-- event&#45;&gt;disk_group -->
<g id="edge6" class="edge"><title>event&#45;&gt;disk_group</title>
<path style="fill:none;stroke:black;" d="M133,-36C115,-47 92,-61 74,-72"/>
</g>
</g>
</svg>
