<?xml version="1.0" encoding="UTF-8" standalone="no"?>
<!DOCTYPE svg PUBLIC "-//W3C//DTD SVG 1.0//EN"
 "http://www.w3.org/TR/2001/REC-SVG-20010904/DTD/svg10.dtd" [
 <!ATTLIST svg xmlns:xlink CDATA #FIXED "http://www.w3.org/1999/xlink">
]>
<!-- Generated by Graphviz version 2.20.2 (Tue Mar &#160;2 19:03:41 UTC 2010)
     For user: (thepler) Todd Hepler -->
<!-- Title: _anonymous_0 Pages: 1 -->
<svg width="380pt" height="192pt"
 viewBox="0.00 0.00 380.00 192.00" xmlns="http://www.w3.org/2000/svg" xmlns:xlink="http://www.w3.org/1999/xlink">
<g id="graph0" class="graph" transform="scale(1 1) rotate(0) translate(4 188)">
<title>_anonymous_0</title>
<polygon style="fill:white;stroke:white;" points="-4,4 -4,-188 376,-188 376,4 -4,4"/>
<!-- library -->
<g id="node1" class="node"><title>library</title>
<polygon style="fill:white;stroke:black;" points="157,-148 157,-184 217,-184 217,-148 157,-148"/>
<text text-anchor="middle" x="187" y="-167.4" style="font-family:Times New Roman;font-size:14.00;">library</text>
</g>
<!-- sample -->
<g id="node2" class="node"><title>sample</title>
<polygon style="fill:white;stroke:black;" points="253,-148 253,-184 317,-184 317,-148 253,-148"/>
<text text-anchor="middle" x="285" y="-167.4" style="font-family:Times New Roman;font-size:14.00;">sample</text>
</g>
<!-- library&#45;&gt;sample -->
<g id="edge18" class="edge"><title>library&#45;&gt;sample</title>
<path style="fill:none;stroke:black;" d="M227,-166C236,-166 244,-166 253,-166"/>
<polygon style="fill:black;stroke:black;" points="227,-166 217,-161.5 222,-166 217,-166 217,-166 217,-166 222,-166 217,-170.5 227,-166 227,-166"/>
</g>
<!-- flowcell -->
<g id="node3" class="node"><title>flowcell</title>
<polygon style="fill:white;stroke:black;" points="1,-148 1,-184 70,-184 70,-148 1,-148"/>
<text text-anchor="middle" x="35" y="-167.4" style="font-family:Times New Roman;font-size:14.00;">flowcell</text>
</g>
<!-- analysis -->
<g id="node4" class="node"><title>analysis</title>
<polygon style="fill:white;stroke:black;" points="0,-74 0,-110 71,-110 71,-74 0,-74"/>
<text text-anchor="middle" x="35" y="-93.4" style="font-family:Times New Roman;font-size:14.00;">analysis</text>
</g>
<!-- flowcell&#45;&gt;analysis -->
<g id="edge2" class="edge"><title>flowcell&#45;&gt;analysis</title>
<path style="fill:none;stroke:black;" d="M35,-148C35,-136 35,-122 35,-110"/>
</g>
<!-- lane -->
<g id="node5" class="node"><title>lane</title>
<polygon style="fill:white;stroke:black;" points="115,-74 115,-110 169,-110 169,-74 115,-74"/>
<text text-anchor="middle" x="142" y="-93.4" style="font-family:Times New Roman;font-size:14.00;">lane</text>
</g>
<!-- analysis&#45;&gt;lane -->
<g id="edge4" class="edge"><title>analysis&#45;&gt;lane</title>
<path style="fill:none;stroke:black;" d="M71,-92C82,-92 94,-92 105,-92"/>
<polygon style="fill:black;stroke:black;" points="105,-92.0001 115,-96.5 110,-92 115,-92 115,-92 115,-92 110,-92 115,-87.5 105,-92.0001 105,-92.0001"/>
<text text-anchor="middle" x="92" y="-95.9" style="font-family:Times New Roman;font-size:14.00;">1..8</text>
</g>
<!-- lane&#45;&gt;library -->
<g id="edge10" class="edge"><title>lane&#45;&gt;library</title>
<path style="fill:none;stroke:black;" d="M158,-119C164,-128 171,-139 176,-148"/>
<polygon style="fill:black;stroke:black;" points="157.856,-118.742 156.934,-107.815 155.428,-114.371 153,-110 153,-110 153,-110 155.428,-114.371 149.066,-112.185 157.856,-118.742 157.856,-118.742"/>
</g>
<!-- basecall -->
<g id="node6" class="node"><title>basecall</title>
<polygon style="fill:white;stroke:black;" points="159,-0 159,-36 229,-36 229,-0 159,-0"/>
<text text-anchor="middle" x="194" y="-19.4" style="font-family:Times New Roman;font-size:14.00;">basecall</text>
</g>
<!-- lane&#45;&gt;basecall -->
<g id="edge6" class="edge"><title>lane&#45;&gt;basecall</title>
<path style="fill:none;stroke:black;" d="M155,-74C161,-65 169,-54 175,-44"/>
<polygon style="fill:black;stroke:black;" points="175,-44 184.6,-38.7 178,-40 181,-36 181,-36 181,-36 178,-40 177.4,-33.3 175,-44 175,-44"/>
</g>
<!-- index -->
<g id="node7" class="node"><title>index</title>
<polygon style="fill:white;stroke:black;" points="205,-74 205,-110 259,-110 259,-74 205,-74"/>
<text text-anchor="middle" x="232" y="-93.4" style="font-family:Times New Roman;font-size:14.00;">index</text>
</g>
<!-- lane&#45;&gt;index -->
<g id="edge8" class="edge"><title>lane&#45;&gt;index</title>
<path style="fill:none;stroke:black;" d="M169,-92C178,-92 186,-92 195,-92"/>
<polygon style="fill:black;stroke:black;" points="195,-92.0001 205,-96.5 200,-92 205,-92 205,-92 205,-92 200,-92 205,-87.5 195,-92.0001 195,-92.0001"/>
</g>
<!-- basecall&#45;&gt;index -->
<g id="edge12" class="edge"><title>basecall&#45;&gt;index</title>
<path style="fill:none;stroke:black;" d="M203,-36C209,-48 217,-62 223,-74"/>
</g>
<!-- index&#45;&gt;library -->
<g id="edge16" class="edge"><title>index&#45;&gt;library</title>
<path style="fill:none;stroke:black;" d="M216,-119C212,-126 207,-133 203,-139"/>
<polygon style="fill:black;stroke:black;" points="216.144,-118.742 224.934,-112.185 218.572,-114.371 221,-110 221,-110 221,-110 218.572,-114.371 217.066,-107.815 216.144,-118.742 216.144,-118.742"/>
<polygon style="fill:black;stroke:black;" points="202.856,-139.258 194.066,-145.815 200.428,-143.629 198,-148 198,-148 198,-148 200.428,-143.629 201.934,-150.185 202.856,-139.258 202.856,-139.258"/>
</g>
<!-- read -->
<g id="node8" class="node"><title>read</title>
<polygon style="fill:white;stroke:black;" points="318,-74 318,-110 372,-110 372,-74 318,-74"/>
<text text-anchor="middle" x="345" y="-93.4" style="font-family:Times New Roman;font-size:14.00;">read</text>
</g>
<!-- index&#45;&gt;read -->
<g id="edge14" class="edge"><title>index&#45;&gt;read</title>
<path style="fill:none;stroke:black;" d="M259,-92C274,-92 292,-92 308,-92"/>
<polygon style="fill:black;stroke:black;" points="308,-92.0001 318,-96.5 313,-92 318,-92 318,-92 318,-92 313,-92 318,-87.5 308,-92.0001 308,-92.0001"/>
<text text-anchor="middle" x="289" y="-95.9" style="font-family:Times New Roman;font-size:14.00;">1..1,2</text>
</g>
</g>
</svg>
