<?xml version="1.0" encoding="UTF-8" standalone="no"?>
<!-- Generated by Graphviz version 2.20.2 (Tue Mar &#160;2 19:03:41 UTC 2010)
     For user: (thepler) Todd Hepler -->

<!-- Title: _anonymous_0 Pages: 1 -->

<svg
   xmlns:dc="http://purl.org/dc/elements/1.1/"
   xmlns:cc="http://creativecommons.org/ns#"
   xmlns:rdf="http://www.w3.org/1999/02/22-rdf-syntax-ns#"
   xmlns:svg="http://www.w3.org/2000/svg"
   xmlns="http://www.w3.org/2000/svg"
   xmlns:sodipodi="http://sodipodi.sourceforge.net/DTD/sodipodi-0.dtd"
   xmlns:inkscape="http://www.inkscape.org/namespaces/inkscape"
   width="380pt"
   height="192pt"
   viewBox="0.00 0.00 380.00 192.00"
   id="svg8227"
   version="1.1"
   inkscape:version="0.48.0 r9654"
   sodipodi:docname="illumina-schema.svg">
  <metadata
     id="metadata8359">
    <rdf:RDF>
      <cc:Work
         rdf:about="">
        <dc:format>image/svg+xml</dc:format>
        <dc:type
           rdf:resource="http://purl.org/dc/dcmitype/StillImage" />
      </cc:Work>
    </rdf:RDF>
  </metadata>
  <defs
     id="defs8357" />
  <sodipodi:namedview
     pagecolor="#ffffff"
     bordercolor="#666666"
     borderopacity="1"
     objecttolerance="10"
     gridtolerance="10"
     guidetolerance="10"
     inkscape:pageopacity="0"
     inkscape:pageshadow="2"
     inkscape:window-width="1276"
     inkscape:window-height="756"
     id="namedview8355"
     showgrid="false"
     inkscape:zoom="0.79254885"
     inkscape:cx="237.5"
     inkscape:cy="120"
     inkscape:window-x="0"
     inkscape:window-y="0"
     inkscape:window-maximized="0"
     inkscape:current-layer="edge10" />
  <g
     id="graph0"
     class="graph"
     transform="scale(1 1) rotate(0) translate(4 188)">
    <title
       id="title8230">_anonymous_0</title>
    <polygon
       style="fill:white;stroke:white;"
       points="-4,4 -4,-188 376,-188 376,4 -4,4"
       id="polygon8232" />
    <!-- library -->
    <g
       id="node1"
       class="node">
      <title
         id="title8235">library</title>
      <polygon
         style="fill:white;stroke:black;"
         points="157,-148 157,-184 217,-184 217,-148 157,-148"
         id="polygon8237" />
      <text
         text-anchor="middle"
         x="187"
         y="-167.4"
         style="font-family:Times New Roman;font-size:14.00;"
         id="text8239">library</text>
    </g>
    <!-- sample -->
    <g
       id="node2"
       class="node">
      <title
         id="title8242">sample</title>
      <polygon
         style="fill:white;stroke:black;"
         points="253,-148 253,-184 317,-184 317,-148 253,-148"
         id="polygon8244" />
      <text
         text-anchor="middle"
         x="285"
         y="-167.4"
         style="font-family:Times New Roman;font-size:14.00;"
         id="text8246">sample</text>
    </g>
    <!-- library&#45;&gt;sample -->
    <g
       id="edge18"
       class="edge">
      <title
         id="title8249">library-&gt;sample</title>
      <path
         style="fill:none;stroke:black;"
         d="M227,-166C236,-166 244,-166 253,-166"
         id="path8251" />
      <polygon
         style="fill:black;stroke:black;"
         points="227,-166 217,-161.5 222,-166 217,-166 217,-166 217,-166 222,-166 217,-170.5 227,-166 227,-166"
         id="polygon8253" />
    </g>
    <!-- flowcell -->
    <g
       id="node3"
       class="node">
      <title
         id="title8256">flowcell</title>
      <polygon
         style="fill:white;stroke:black;"
         points="1,-148 1,-184 70,-184 70,-148 1,-148"
         id="polygon8258" />
      <text
         text-anchor="middle"
         x="35"
         y="-167.4"
         style="font-family:Times New Roman;font-size:14.00;"
         id="text8260">flowcell</text>
    </g>
    <!-- analysis -->
    <g
       id="node4"
       class="node">
      <title
         id="title8263">analysis</title>
      <polygon
         style="fill:white;stroke:black;"
         points="0,-74 0,-110 71,-110 71,-74 0,-74"
         id="polygon8265" />
      <text
         text-anchor="middle"
         x="35"
         y="-93.4"
         style="font-family:Times New Roman;font-size:14.00;"
         id="text8267">analysis</text>
    </g>
    <!-- flowcell&#45;&gt;analysis -->
    <g
       id="edge2"
       class="edge">
      <title
         id="title8270">flowcell-&gt;analysis</title>
      <path
         style="fill:none;stroke:black;"
         d="M35,-148C35,-136 35,-122 35,-110"
         id="path8272" />
    </g>
    <!-- lane -->
    <g
       id="node5"
       class="node">
      <title
         id="title8275">lane</title>
      <polygon
         style="fill:white;stroke:black;"
         points="115,-74 115,-110 169,-110 169,-74 115,-74"
         id="polygon8277" />
      <text
         text-anchor="middle"
         x="142"
         y="-93.4"
         style="font-family:Times New Roman;font-size:14.00;"
         id="text8279">lane</text>
    </g>
    <!-- analysis&#45;&gt;lane -->
    <g
       id="edge4"
       class="edge">
      <title
         id="title8282">analysis-&gt;lane</title>
      <path
         style="fill:none;stroke:black;"
         d="M71,-92C82,-92 94,-92 105,-92"
         id="path8284" />
      <polygon
         style="fill:black;stroke:black;"
         points="105,-92.0001 115,-96.5 110,-92 115,-92 115,-92 115,-92 110,-92 115,-87.5 105,-92.0001 105,-92.0001"
         id="polygon8286" />
      <text
         text-anchor="middle"
         x="92"
         y="-95.9"
         style="font-family:Times New Roman;font-size:14.00;"
         id="text8288">1..8</text>
    </g>
    <!-- lane&#45;&gt;library -->
    <g
       id="edge10"
       class="edge">
      <title
         id="title8291">lane-&gt;library</title>
      <path
         style="fill:none;stroke:#000000"
         d="M 154.30471,-120.97962 C 160.30471,-129.97962 171,-139 176,-148"
         id="path8293"
         inkscape:connector-curvature="0"
         sodipodi:nodetypes="cc" />
      <polygon
         style="fill:#000000;stroke:#000000"
         points="156.934,-107.815 155.428,-114.371 153,-110 153,-110 153,-110 155.428,-114.371 149.066,-112.185 157.856,-118.742 157.856,-118.742 157.856,-118.742 "
         id="polygon8295"
         transform="matrix(0.8629738,-0.50524867,0.50524867,0.8629738,78.261988,62.013844)" />
    </g>
    <!-- basecall -->
    <g
       id="node6"
       class="node">
      <title
         id="title8298">basecall</title>
      <polygon
         style="fill:white;stroke:black;"
         points="159,-0 159,-36 229,-36 229,-0 159,-0"
         id="polygon8300" />
      <text
         text-anchor="middle"
         x="194"
         y="-19.4"
         style="font-family:Times New Roman;font-size:14.00;"
         id="text8302">basecall</text>
    </g>
    <!-- lane&#45;&gt;basecall -->
    <g
       id="edge6"
       class="edge">
      <title
         id="title8305">lane-&gt;basecall</title>
      <path
         style="fill:none;stroke:#000000"
         d="m 155,-74 c 6,9 17.73281,17.293713 23.73281,27.293713"
         id="path8307"
         inkscape:connector-curvature="0"
         sodipodi:nodetypes="cc" />
      <polygon
         style="fill:#000000;stroke:#000000"
         points="181,-36 181,-36 181,-36 178,-40 177.4,-33.3 175,-44 175,-44 175,-44 184.6,-38.7 178,-40 "
         id="polygon8309"
         transform="matrix(0.81488371,0.55290921,-0.58057464,0.8332415,10.59197,-106.23157)" />
    </g>
    <!-- index -->
    <g
       id="node7"
       class="node">
      <title
         id="title8312">index</title>
      <polygon
         style="fill:white;stroke:black;"
         points="205,-74 205,-110 259,-110 259,-74 205,-74"
         id="polygon8314" />
      <text
         text-anchor="middle"
         x="232"
         y="-93.4"
         style="font-family:Times New Roman;font-size:14.00;"
         id="text8316">index</text>
    </g>
    <!-- lane&#45;&gt;index -->
    <g
       id="edge8"
       class="edge">
      <title
         id="title8319">lane-&gt;index</title>
      <path
         style="fill:none;stroke:black;"
         d="M169,-92C178,-92 186,-92 195,-92"
         id="path8321" />
      <polygon
         style="fill:black;stroke:black;"
         points="195,-92.0001 205,-96.5 200,-92 205,-92 205,-92 205,-92 200,-92 205,-87.5 195,-92.0001 195,-92.0001"
         id="polygon8323" />
    </g>
    <!-- basecall&#45;&gt;index -->
    <g
       id="edge12"
       class="edge">
      <title
         id="title8326">basecall-&gt;index</title>
      <path
         style="fill:none;stroke:black;"
         d="M203,-36C209,-48 217,-62 223,-74"
         id="path8328" />
    </g>
    <!-- index&#45;&gt;library -->
    <g
       id="edge16"
       class="edge">
      <title
         id="title8331">index-&gt;library</title>
      <path
         style="fill:none;stroke:#000000"
         d="m 218.77147,-120.84765 c -4,-7 -15.07084,-10.04075 -19.07084,-16.04075"
         id="path8333"
         inkscape:connector-curvature="0"
         sodipodi:nodetypes="cc" />
      <polygon
         style="fill:#000000;stroke:#000000"
         points="224.934,-112.185 218.572,-114.371 221,-110 221,-110 221,-110 218.572,-114.371 217.066,-107.815 216.144,-118.742 216.144,-118.742 216.144,-118.742 "
         id="polygon8335"
         transform="matrix(0.90605122,0.42316804,-0.42316804,0.90605122,-27.21647,-103.96743)" />
      <polygon
         style="fill:#000000;stroke:#000000"
         points="194.066,-145.815 200.428,-143.629 198,-148 198,-148 198,-148 200.428,-143.629 201.934,-150.185 202.856,-139.258 202.856,-139.258 202.856,-139.258 "
         id="polygon8337"
         transform="matrix(0.87457544,0.48488947,-0.48488947,0.87457544,-45.282048,-114.38328)" />
    </g>
    <!-- read -->
    <g
       id="node8"
       class="node">
      <title
         id="title8340">read</title>
      <polygon
         style="fill:white;stroke:black;"
         points="318,-74 318,-110 372,-110 372,-74 318,-74"
         id="polygon8342" />
      <text
         text-anchor="middle"
         x="345"
         y="-93.4"
         style="font-family:Times New Roman;font-size:14.00;"
         id="text8344">read</text>
    </g>
    <!-- index&#45;&gt;read -->
    <g
       id="edge14"
       class="edge">
      <title
         id="title8347">index-&gt;read</title>
      <path
         style="fill:none;stroke:black;"
         d="M259,-92C274,-92 292,-92 308,-92"
         id="path8349" />
      <polygon
         style="fill:black;stroke:black;"
         points="308,-92.0001 318,-96.5 313,-92 318,-92 318,-92 318,-92 313,-92 318,-87.5 308,-92.0001 308,-92.0001"
         id="polygon8351" />
      <text
         text-anchor="middle"
         x="289"
         y="-95.9"
         style="font-family:Times New Roman;font-size:14.00;"
         id="text8353">1..1,2</text>
    </g>
  </g>
</svg>
