<?xml version="1.0" encoding="UTF-8" standalone="no"?>
<!-- Generated by Graphviz version 2.20.2 (Tue Mar &#160;2 19:03:41 UTC 2010)
     For user: (thepler) Todd Hepler -->

<!-- Title: _anonymous_0 Pages: 1 -->

<svg
   xmlns:dc="http://purl.org/dc/elements/1.1/"
   xmlns:cc="http://creativecommons.org/ns#"
   xmlns:rdf="http://www.w3.org/1999/02/22-rdf-syntax-ns#"
   xmlns:svg="http://www.w3.org/2000/svg"
   xmlns="http://www.w3.org/2000/svg"
   xmlns:sodipodi="http://sodipodi.sourceforge.net/DTD/sodipodi-0.dtd"
   xmlns:inkscape="http://www.inkscape.org/namespaces/inkscape"
   width="380pt"
   height="118pt"
   viewBox="0.00 0.00 380.00 118.00"
   id="svg2"
   version="1.1"
   inkscape:version="0.47 r22583"
   sodipodi:docname="illumina-schema.svg">
  <metadata
     id="metadata115">
    <rdf:RDF>
      <cc:Work
         rdf:about="">
        <dc:format>image/svg+xml</dc:format>
        <dc:type
           rdf:resource="http://purl.org/dc/dcmitype/StillImage" />
      </cc:Work>
    </rdf:RDF>
  </metadata>
  <defs
     id="defs113">
    <inkscape:perspective
       sodipodi:type="inkscape:persp3d"
       inkscape:vp_x="0 : 73.75 : 1"
       inkscape:vp_y="0 : 1000 : 0"
       inkscape:vp_z="475 : 73.75 : 1"
       inkscape:persp3d-origin="237.5 : 49.166667 : 1"
       id="perspective117" />
  </defs>
  <sodipodi:namedview
     pagecolor="#ffffff"
     bordercolor="#666666"
     borderopacity="1"
     objecttolerance="10"
     gridtolerance="10"
     guidetolerance="10"
     inkscape:pageopacity="0"
     inkscape:pageshadow="2"
     inkscape:window-width="1920"
     inkscape:window-height="1125"
     id="namedview111"
     showgrid="false"
     inkscape:zoom="3.8210526"
     inkscape:cx="237.5"
     inkscape:cy="73.75"
     inkscape:window-x="0"
     inkscape:window-y="24"
     inkscape:window-maximized="1"
     inkscape:current-layer="edge12" />
  <g
     id="graph0"
     class="graph"
     transform="scale(1 1) rotate(0) translate(4 114)">
    <title
       id="title5">_anonymous_0</title>
    <polygon
       style="fill:white;stroke:white;"
       points="-4,4 -4,-114 376,-114 376,4 -4,4"
       id="polygon7" />
    <!-- library -->
    <g
       id="node1"
       class="node">
      <title
         id="title10">library</title>
      <polygon
         style="fill:white;stroke:black;"
         points="157,-74 157,-110 217,-110 217,-74 157,-74"
         id="polygon12" />
      <text
         text-anchor="middle"
         x="187"
         y="-93.4"
         style="font-family:Times New Roman;font-size:14.00;"
         id="text14">library</text>
    </g>
    <!-- sample -->
    <g
       id="node2"
       class="node">
      <title
         id="title17">sample</title>
      <polygon
         style="fill:white;stroke:black;"
         points="253,-74 253,-110 317,-110 317,-74 253,-74"
         id="polygon19" />
      <text
         text-anchor="middle"
         x="285"
         y="-93.4"
         style="font-family:Times New Roman;font-size:14.00;"
         id="text21">sample</text>
    </g>
    <!-- library&#45;&gt;sample -->
    <g
       id="edge14"
       class="edge">
      <title
         id="title24">library-&gt;sample</title>
      <path
         style="fill:none;stroke:black;"
         d="M227,-92C236,-92 244,-92 253,-92"
         id="path26" />
      <polygon
         style="fill:black;stroke:black;"
         points="227,-92.0001 217,-87.5 222,-92 217,-92 217,-92 217,-92 222,-92 217,-96.5 227,-92.0001 227,-92.0001"
         id="polygon28" />
    </g>
    <!-- flowcell -->
    <g
       id="node3"
       class="node">
      <title
         id="title31">flowcell</title>
      <polygon
         style="fill:white;stroke:black;"
         points="1,-74 1,-110 70,-110 70,-74 1,-74"
         id="polygon33" />
      <text
         text-anchor="middle"
         x="35"
         y="-93.4"
         style="font-family:Times New Roman;font-size:14.00;"
         id="text35">flowcell</text>
    </g>
    <!-- analysis -->
    <g
       id="node4"
       class="node">
      <title
         id="title38">analysis</title>
      <polygon
         style="fill:white;stroke:black;"
         points="0,-0 0,-36 71,-36 71,-0 0,-0"
         id="polygon40" />
      <text
         text-anchor="middle"
         x="35"
         y="-19.4"
         style="font-family:Times New Roman;font-size:14.00;"
         id="text42">analysis</text>
    </g>
    <!-- flowcell&#45;&gt;analysis -->
    <g
       id="edge2"
       class="edge">
      <title
         id="title45">flowcell-&gt;analysis</title>
      <path
         style="fill:none;stroke:black;"
         d="M35,-74C35,-62 35,-48 35,-36"
         id="path47" />
    </g>
    <!-- lane -->
    <g
       id="node5"
       class="node">
      <title
         id="title50">lane</title>
      <polygon
         style="fill:white;stroke:black;"
         points="115,-0 115,-36 169,-36 169,-0 115,-0"
         id="polygon52" />
      <text
         text-anchor="middle"
         x="142"
         y="-19.4"
         style="font-family:Times New Roman;font-size:14.00;"
         id="text54">lane</text>
    </g>
    <!-- analysis&#45;&gt;lane -->
    <g
       id="edge4"
       class="edge">
      <title
         id="title57">analysis-&gt;lane</title>
      <path
         style="fill:none;stroke:black;"
         d="M71,-18C82,-18 94,-18 105,-18"
         id="path59" />
      <polygon
         style="fill:black;stroke:black;"
         points="105,-18.0001 115,-22.5 110,-18 115,-18 115,-18 115,-18 110,-18 115,-13.5 105,-18.0001 105,-18.0001"
         id="polygon61" />
      <text
         text-anchor="middle"
         x="93"
         y="-21.9"
         style="font-family:Times New Roman;font-size:14.00;"
         id="text63">1..8</text>
    </g>
    <!-- lane&#45;&gt;library -->
    <g
       id="edge8"
       class="edge">
      <title
         id="title66">lane-&gt;library</title>
      <path
         style="fill:none;stroke:black;"
         d="M 154.8595,-46.465565 C 160.8595,-55.465565 171,-65 176,-74"
         id="path68"
         sodipodi:nodetypes="cc" />
      <polygon
         style="fill:#000000;stroke:#000000"
         points="156.934,-33.8146 155.428,-40.3708 153,-36 153,-36 153,-36 155.428,-40.3708 149.066,-38.1854 157.856,-44.7416 157.856,-44.7416 157.856,-44.7416 "
         id="polygon70"
         transform="matrix(0.89535683,-0.44534946,0.44534946,0.89535683,33.551126,64.233589)" />
    </g>
    <!-- index -->
    <g
       id="node6"
       class="node">
      <title
         id="title73">index</title>
      <polygon
         style="fill:white;stroke:black;"
         points="205,-0 205,-36 259,-36 259,-0 205,-0"
         id="polygon75" />
      <text
         text-anchor="middle"
         x="232"
         y="-19.4"
         style="font-family:Times New Roman;font-size:14.00;"
         id="text77">index</text>
    </g>
    <!-- lane&#45;&gt;index -->
    <g
       id="edge6"
       class="edge">
      <title
         id="title80">lane-&gt;index</title>
      <path
         style="fill:none;stroke:black;"
         d="M169,-18C178,-18 186,-18 195,-18"
         id="path82" />
      <polygon
         style="fill:black;stroke:black;"
         points="195,-18.0001 205,-22.5 200,-18 205,-18 205,-18 205,-18 200,-18 205,-13.5 195,-18.0001 195,-18.0001"
         id="polygon84" />
    </g>
    <!-- index&#45;&gt;library -->
    <g
       id="edge12"
       class="edge">
      <title
         id="title87">index-&gt;library</title>
      <path
         style="fill:none;stroke:black;"
         d="m 219.1405,-46.465565 c -4,-7 -15.38568,-11.278237 -19.38568,-17.278237"
         id="path89"
         sodipodi:nodetypes="cc" />
      <polygon
         style="fill:#000000;stroke:#000000"
         points="224.934,-38.1854 218.572,-40.3708 221,-36 221,-36 221,-36 218.572,-40.3708 217.066,-33.8146 216.144,-44.7416 216.144,-44.7416 216.144,-44.7416 "
         id="polygon91"
         transform="matrix(0.88764293,0.46053233,-0.46053233,0.88764293,6.6902804,-105.97851)" />
      <polygon
         style="fill:#000000;stroke:#000000"
         points="194.066,-71.8146 200.428,-69.6292 198,-74 198,-74 198,-74 200.428,-69.6292 201.934,-76.1854 202.856,-65.2584 202.856,-65.2584 202.856,-65.2584 "
         id="polygon93"
         transform="matrix(0.88807616,0.45969635,-0.45969635,0.88807616,-10.298082,-99.147264)" />
    </g>
    <!-- read -->
    <g
       id="node7"
       class="node">
      <title
         id="title96">read</title>
      <polygon
         style="fill:white;stroke:black;"
         points="318,-0 318,-36 372,-36 372,-0 318,-0"
         id="polygon98" />
      <text
         text-anchor="middle"
         x="345"
         y="-19.4"
         style="font-family:Times New Roman;font-size:14.00;"
         id="text100">read</text>
    </g>
    <!-- index&#45;&gt;read -->
    <g
       id="edge10"
       class="edge">
      <title
         id="title103">index-&gt;read</title>
      <path
         style="fill:none;stroke:black;"
         d="M259,-18C274,-18 292,-18 308,-18"
         id="path105" />
      <polygon
         style="fill:black;stroke:black;"
         points="308,-18.0001 318,-22.5 313,-18 318,-18 318,-18 318,-18 313,-18 318,-13.5 308,-18.0001 308,-18.0001"
         id="polygon107" />
      <text
         text-anchor="middle"
         x="289"
         y="-21.9"
         style="font-family:Times New Roman;font-size:14.00;"
         id="text109">1..1,2</text>
    </g>
  </g>
</svg>
