<?xml version="1.0" encoding="utf-8"?>
<!-- Generator: Adobe Illustrator 13.0.2, SVG Export Plug-In . SVG Version: 6.00 Build 14948)  -->
<!DOCTYPE svg PUBLIC "-//W3C//DTD SVG 1.1//EN" "http://www.w3.org/Graphics/SVG/1.1/DTD/svg11.dtd">
<svg version="1.1" id="Layer_1" xmlns="http://www.w3.org/2000/svg" xmlns:xlink="http://www.w3.org/1999/xlink" x="0px" y="0px"
	 width="720px" height="241px" viewBox="0 0 96.11 32.073" enable-background="new 0 0 96.11 32.073" xml:space="preserve">
<polyline points="6.393,8.768 6.393,2.377 6.599,2.46 6.599,8.85 6.393,8.768 "/>
<polyline points="0.02,12.909 0.02,19.301 1.1,19.732 1.1,13.342 0.939,13.279 0.939,12.527 0.179,12.831 0.179,12.974 0.02,12.909 
	"/>
<polyline points="1.935,6.984 1.935,0.594 2.142,0.677 2.142,7.066 1.935,6.984 "/>
<polyline points="3.421,7.578 3.421,1.188 3.627,1.271 3.627,7.661 3.421,7.578 "/>
<polyline points="4.907,8.173 4.907,1.782 5.113,1.865 5.113,8.256 4.907,8.173 "/>
<polyline points="0.449,6.39 0.449,0 0.656,0.083 0.656,6.473 0.449,6.39 "/>
<polyline points="7.881,9.366 7.881,2.977 8.088,3.059 8.088,9.449 7.881,9.366 "/>
<polyline points="9.574,9.07 9.574,3.653 9.367,3.57 9.367,9.158 9.094,9.266 9.094,15.656 9.854,15.353 9.854,8.962 9.574,9.07 "/>
<polyline points="11.06,8.483 11.06,4.247 10.853,4.164 10.853,8.56 10.58,8.672 10.58,15.062 11.34,14.758 11.34,8.367 
	11.06,8.483 "/>
<polyline points="12.545,7.886 12.545,4.842 12.339,4.76 12.339,7.975 12.066,8.077 12.066,14.468 12.826,14.163 12.826,7.773 
	12.545,7.886 "/>
<polyline points="14.031,7.287 14.031,5.437 13.825,5.354 13.825,7.377 13.551,7.482 13.551,13.873 14.312,13.569 14.312,7.179 
	14.031,7.287 "/>
<polyline points="15.517,6.696 15.517,6.03 15.311,5.947 15.311,6.778 15.037,6.889 15.037,13.278 15.797,12.975 15.797,6.585 
	15.517,6.696 "/>
<polyline points="2.586,13.937 2.586,20.326 1.506,19.895 1.506,13.505 1.665,13.573 1.665,12.237 2.425,11.934 2.425,13.878 
	2.586,13.937 "/>
<polyline points="4.072,14.53 4.072,20.921 2.992,20.488 2.992,14.099 3.15,14.167 3.15,11.644 3.911,11.34 3.911,14.469 
	4.072,14.53 "/>
<polyline points="5.557,15.125 5.557,21.516 4.477,21.084 4.477,14.692 4.636,14.758 4.636,11.049 5.396,10.744 5.396,15.06 
	5.557,15.125 "/>
<polyline points="7.043,15.719 7.043,22.109 5.963,21.678 5.963,15.287 6.122,15.35 6.122,10.454 6.882,10.15 6.882,15.657 
	7.043,15.719 "/>
<polyline points="14.878,18.853 14.878,25.243 14.473,25.08 14.473,18.69 13.393,18.259 13.393,24.648 12.987,24.486 12.987,18.097 
	11.907,17.664 11.907,24.055 11.501,23.893 11.501,17.502 10.421,17.069 10.421,23.461 10.015,23.299 10.015,16.907 8.935,16.476 
	8.935,22.865 8.529,22.703 8.529,16.313 8.368,16.245 8.368,9.557 7.608,9.86 7.608,15.943 7.449,15.882 7.449,22.271 7.993,22.488 
	0,25.684 0,32.073 15.958,25.676 15.958,19.284 14.878,18.853 "/>
<polyline points="25.93,8.768 25.93,2.377 25.723,2.46 25.723,8.85 25.93,8.768 "/>
<polyline points="32.303,12.909 32.303,19.301 31.223,19.732 31.223,13.342 31.384,13.279 31.384,12.527 32.144,12.831 
	32.144,12.974 32.303,12.909 "/>
<polyline points="30.387,6.984 30.387,0.594 30.181,0.677 30.181,7.066 30.387,6.984 "/>
<polyline points="28.902,7.578 28.902,1.188 28.695,1.271 28.695,7.661 28.902,7.578 "/>
<polyline points="27.416,8.173 27.416,1.782 27.209,1.865 27.209,8.256 27.416,8.173 "/>
<polyline points="31.873,6.39 31.873,0 31.667,0.083 31.667,6.473 31.873,6.39 "/>
<polyline points="24.441,9.366 24.441,2.977 24.235,3.059 24.235,9.449 24.441,9.366 "/>
<polyline points="22.749,9.07 22.749,3.653 22.955,3.57 22.955,9.158 23.229,9.266 23.229,15.656 22.469,15.353 22.469,8.962 
	22.749,9.07 "/>
<polyline points="21.263,8.483 21.263,4.247 21.469,4.164 21.469,8.56 21.743,8.672 21.743,15.062 20.983,14.758 20.983,8.367 
	21.263,8.483 "/>
<polyline points="19.777,7.886 19.777,4.842 19.984,4.76 19.984,7.975 20.257,8.077 20.257,14.468 19.497,14.163 19.497,7.773 
	19.777,7.886 "/>
<polyline points="18.291,7.287 18.291,5.437 18.498,5.354 18.498,7.377 18.771,7.482 18.771,13.873 18.011,13.569 18.011,7.179 
	18.291,7.287 "/>
<polyline points="16.805,6.696 16.805,6.03 17.012,5.947 17.012,6.778 17.285,6.889 17.285,13.278 16.525,12.975 16.525,6.585 
	16.805,6.696 "/>
<polyline points="29.737,13.937 29.737,20.326 30.817,19.895 30.817,13.505 30.658,13.573 30.658,12.237 29.898,11.934 
	29.898,13.878 29.737,13.937 "/>
<polyline points="28.251,14.53 28.251,20.921 29.331,20.488 29.331,14.099 29.172,14.167 29.172,11.644 28.412,11.34 28.412,14.469 
	28.251,14.53 "/>
<polyline points="26.765,15.125 26.765,21.516 27.845,21.084 27.845,14.692 27.686,14.758 27.686,11.049 26.926,10.744 
	26.926,15.06 26.765,15.125 "/>
<polyline points="25.279,15.719 25.279,22.109 26.359,21.678 26.359,15.287 26.2,15.35 26.2,10.454 25.44,10.15 25.44,15.657 
	25.279,15.719 "/>
<polyline points="17.444,18.853 17.444,25.243 17.85,25.08 17.85,18.69 18.93,18.259 18.93,24.648 19.336,24.486 19.336,18.097 
	20.416,17.664 20.416,24.055 20.822,23.893 20.822,17.502 21.902,17.069 21.902,23.461 22.308,23.299 22.308,16.907 23.388,16.476 
	23.388,22.865 23.793,22.703 23.793,16.313 23.954,16.245 23.954,9.557 24.715,9.86 24.715,15.943 24.873,15.882 24.873,22.271 
	24.329,22.488 32.322,25.684 32.322,32.073 16.364,25.676 16.364,19.284 17.444,18.853 "/>
<g>
	<path d="M37.446,1.596h1.438l3.238,3.973V2.514c0-0.325-0.037-0.528-0.109-0.609c-0.096-0.109-0.249-0.164-0.457-0.164h-0.184
		V1.596h1.844V1.74h-0.188c-0.224,0-0.383,0.067-0.477,0.203c-0.057,0.083-0.086,0.273-0.086,0.57v4.465h-0.141l-3.492-4.266v3.262
		c0,0.325,0.035,0.528,0.105,0.609c0.099,0.109,0.251,0.164,0.457,0.164h0.188v0.145h-1.844V6.748h0.184
		c0.227,0,0.387-0.067,0.48-0.203c0.057-0.083,0.086-0.273,0.086-0.57V2.291c-0.154-0.18-0.27-0.298-0.35-0.355
		s-0.196-0.11-0.35-0.16C37.714,1.752,37.6,1.74,37.446,1.74V1.596z"/>
	<path d="M45.606,6.377c-0.367,0.284-0.598,0.448-0.691,0.492c-0.141,0.065-0.291,0.098-0.449,0.098
		c-0.248,0-0.451-0.085-0.611-0.254s-0.24-0.392-0.24-0.668c0-0.175,0.039-0.325,0.117-0.453c0.107-0.177,0.292-0.344,0.557-0.5
		s0.704-0.347,1.318-0.57V4.381c0-0.356-0.057-0.602-0.17-0.734s-0.278-0.199-0.494-0.199c-0.164,0-0.294,0.044-0.391,0.133
		c-0.099,0.089-0.148,0.19-0.148,0.305l0.008,0.227c0,0.12-0.031,0.212-0.092,0.277s-0.141,0.098-0.24,0.098
		c-0.096,0-0.175-0.034-0.236-0.102s-0.092-0.16-0.092-0.277c0-0.224,0.115-0.43,0.344-0.617s0.551-0.281,0.965-0.281
		c0.318,0,0.578,0.054,0.781,0.16c0.154,0.081,0.267,0.207,0.34,0.379c0.047,0.112,0.07,0.341,0.07,0.688V5.65
		c0,0.341,0.006,0.55,0.02,0.627s0.035,0.128,0.064,0.154s0.064,0.039,0.104,0.039c0.042,0,0.078-0.009,0.109-0.027
		c0.055-0.034,0.16-0.129,0.316-0.285v0.219c-0.292,0.391-0.57,0.586-0.836,0.586c-0.127,0-0.229-0.044-0.305-0.133
		S45.608,6.591,45.606,6.377z M45.606,6.123V4.76c-0.393,0.156-0.647,0.267-0.762,0.332c-0.206,0.114-0.353,0.234-0.441,0.359
		s-0.133,0.262-0.133,0.41c0,0.188,0.056,0.343,0.168,0.467s0.241,0.186,0.387,0.186C45.022,6.514,45.283,6.384,45.606,6.123z"/>
	<path d="M48.168,2.139v1.176h0.836v0.273h-0.836v2.32c0,0.231,0.033,0.388,0.1,0.469s0.152,0.121,0.256,0.121
		c0.086,0,0.169-0.026,0.25-0.08s0.143-0.132,0.188-0.236h0.152c-0.091,0.255-0.22,0.447-0.387,0.576s-0.338,0.193-0.516,0.193
		c-0.12,0-0.237-0.033-0.352-0.1s-0.199-0.161-0.254-0.285s-0.082-0.314-0.082-0.572V3.588h-0.566V3.459
		c0.143-0.058,0.29-0.154,0.439-0.291s0.283-0.299,0.4-0.486c0.06-0.099,0.143-0.28,0.25-0.543H48.168z"/>
	<path d="M50.586,3.209v2.875c0,0.224,0.016,0.373,0.049,0.447s0.081,0.13,0.145,0.166s0.18,0.055,0.35,0.055v0.141h-1.738V6.752
		c0.174,0,0.292-0.017,0.352-0.051s0.107-0.09,0.143-0.168s0.053-0.228,0.053-0.449V4.705c0-0.388-0.012-0.64-0.035-0.754
		c-0.018-0.083-0.047-0.142-0.086-0.174s-0.092-0.049-0.16-0.049c-0.073,0-0.162,0.02-0.266,0.059l-0.055-0.141l1.078-0.438H50.586z
		 M50.262,1.338c0.109,0,0.203,0.038,0.279,0.115s0.115,0.17,0.115,0.279s-0.039,0.203-0.115,0.281s-0.17,0.117-0.279,0.117
		s-0.203-0.039-0.281-0.117s-0.117-0.172-0.117-0.281s0.039-0.202,0.115-0.279S50.15,1.338,50.262,1.338z"/>
	<path d="M53.325,3.209c0.542,0,0.977,0.206,1.305,0.617c0.279,0.352,0.418,0.755,0.418,1.211c0,0.32-0.077,0.645-0.23,0.973
		s-0.365,0.575-0.635,0.742s-0.57,0.25-0.9,0.25c-0.539,0-0.967-0.215-1.285-0.645c-0.268-0.362-0.402-0.769-0.402-1.219
		c0-0.328,0.082-0.654,0.244-0.979s0.377-0.563,0.643-0.719S53.028,3.209,53.325,3.209z M53.204,3.463
		c-0.138,0-0.277,0.041-0.416,0.123s-0.252,0.226-0.338,0.432s-0.129,0.47-0.129,0.793c0,0.521,0.104,0.97,0.311,1.348
		s0.48,0.566,0.818,0.566c0.252,0,0.461-0.104,0.625-0.312s0.246-0.566,0.246-1.074c0-0.636-0.137-1.136-0.41-1.5
		C53.726,3.588,53.49,3.463,53.204,3.463z"/>
	<path d="M56.618,3.967c0.419-0.505,0.819-0.758,1.199-0.758c0.195,0,0.363,0.049,0.504,0.146s0.252,0.259,0.336,0.482
		c0.057,0.156,0.086,0.396,0.086,0.719v1.527c0,0.227,0.018,0.38,0.055,0.461c0.029,0.065,0.075,0.116,0.139,0.152
		s0.182,0.055,0.354,0.055v0.141h-1.77V6.752h0.074c0.167,0,0.283-0.025,0.35-0.076s0.113-0.126,0.139-0.225
		c0.01-0.039,0.016-0.161,0.016-0.367V4.619c0-0.325-0.042-0.562-0.127-0.709s-0.227-0.221-0.428-0.221
		c-0.31,0-0.619,0.169-0.926,0.508v1.887c0,0.242,0.014,0.392,0.043,0.449c0.037,0.075,0.086,0.131,0.15,0.166
		s0.193,0.053,0.389,0.053v0.141h-1.77V6.752h0.078c0.182,0,0.305-0.046,0.369-0.139s0.096-0.269,0.096-0.529V4.756
		c0-0.43-0.01-0.691-0.029-0.785s-0.049-0.157-0.09-0.191s-0.094-0.051-0.162-0.051c-0.073,0-0.16,0.02-0.262,0.059l-0.059-0.141
		l1.078-0.438h0.168V3.967z"/>
	<path d="M61.602,6.377c-0.367,0.284-0.598,0.448-0.691,0.492c-0.141,0.065-0.291,0.098-0.449,0.098
		c-0.248,0-0.451-0.085-0.611-0.254s-0.24-0.392-0.24-0.668c0-0.175,0.039-0.325,0.117-0.453c0.107-0.177,0.292-0.344,0.557-0.5
		s0.704-0.347,1.318-0.57V4.381c0-0.356-0.057-0.602-0.17-0.734s-0.278-0.199-0.494-0.199c-0.164,0-0.294,0.044-0.391,0.133
		c-0.099,0.089-0.148,0.19-0.148,0.305l0.008,0.227c0,0.12-0.031,0.212-0.092,0.277s-0.141,0.098-0.24,0.098
		c-0.096,0-0.175-0.034-0.236-0.102s-0.092-0.16-0.092-0.277c0-0.224,0.115-0.43,0.344-0.617s0.551-0.281,0.965-0.281
		c0.318,0,0.578,0.054,0.781,0.16c0.154,0.081,0.267,0.207,0.34,0.379c0.047,0.112,0.07,0.341,0.07,0.688V5.65
		c0,0.341,0.006,0.55,0.02,0.627s0.035,0.128,0.064,0.154s0.064,0.039,0.104,0.039c0.042,0,0.078-0.009,0.109-0.027
		c0.055-0.034,0.16-0.129,0.316-0.285v0.219c-0.292,0.391-0.57,0.586-0.836,0.586c-0.127,0-0.229-0.044-0.305-0.133
		S61.604,6.591,61.602,6.377z M61.602,6.123V4.76c-0.393,0.156-0.647,0.267-0.762,0.332c-0.206,0.114-0.353,0.234-0.441,0.359
		s-0.133,0.262-0.133,0.41c0,0.188,0.056,0.343,0.168,0.467s0.241,0.186,0.387,0.186C61.019,6.514,61.279,6.384,61.602,6.123z"/>
	<path d="M64.356,1.338v4.746c0,0.224,0.016,0.372,0.049,0.445s0.083,0.128,0.15,0.166s0.194,0.057,0.379,0.057v0.141H63.18V6.752
		c0.164,0,0.276-0.017,0.336-0.051s0.107-0.09,0.141-0.168s0.051-0.228,0.051-0.449v-3.25c0-0.403-0.009-0.651-0.027-0.744
		S63.633,1.935,63.592,1.9S63.5,1.85,63.438,1.85c-0.068,0-0.154,0.021-0.258,0.062l-0.066-0.137l1.066-0.438H64.356z"/>
	<path d="M68.935,4.053h2.461V2.537c0-0.271-0.017-0.449-0.051-0.535c-0.026-0.065-0.081-0.121-0.164-0.168
		c-0.112-0.062-0.23-0.094-0.355-0.094h-0.188V1.596h2.266V1.74h-0.188c-0.125,0-0.244,0.03-0.355,0.09
		c-0.083,0.042-0.14,0.104-0.17,0.189s-0.045,0.257-0.045,0.518v3.418c0,0.269,0.017,0.445,0.051,0.531
		c0.026,0.065,0.08,0.121,0.16,0.168c0.115,0.062,0.234,0.094,0.359,0.094h0.188v0.145h-2.266V6.748h0.188
		c0.216,0,0.374-0.063,0.473-0.191c0.065-0.083,0.098-0.284,0.098-0.602V4.342h-2.461v1.613c0,0.269,0.017,0.445,0.051,0.531
		c0.026,0.065,0.081,0.121,0.164,0.168c0.112,0.062,0.23,0.094,0.355,0.094h0.191v0.145h-2.27V6.748h0.188
		c0.219,0,0.377-0.063,0.477-0.191c0.062-0.083,0.094-0.284,0.094-0.602V2.537c0-0.271-0.017-0.449-0.051-0.535
		c-0.026-0.065-0.08-0.121-0.16-0.168c-0.115-0.062-0.234-0.094-0.359-0.094h-0.188V1.596h2.27V1.74h-0.191
		c-0.125,0-0.244,0.03-0.355,0.09c-0.081,0.042-0.137,0.104-0.168,0.189s-0.047,0.257-0.047,0.518V4.053z"/>
	<path d="M76.454,3.314v2.168c0,0.414,0.01,0.667,0.029,0.76s0.051,0.157,0.094,0.193s0.093,0.055,0.15,0.055
		c0.081,0,0.172-0.022,0.273-0.066l0.055,0.137l-1.07,0.441H75.81V6.244c-0.307,0.333-0.542,0.543-0.703,0.629
		s-0.332,0.129-0.512,0.129c-0.201,0-0.375-0.058-0.521-0.174s-0.25-0.265-0.307-0.447s-0.086-0.44-0.086-0.773V4.01
		c0-0.169-0.018-0.286-0.055-0.352s-0.09-0.115-0.162-0.15s-0.201-0.052-0.389-0.049V3.314h1.254v2.395
		c0,0.333,0.058,0.552,0.174,0.656s0.256,0.156,0.42,0.156c0.112,0,0.239-0.035,0.381-0.105s0.311-0.204,0.506-0.402V3.986
		c0-0.203-0.037-0.341-0.111-0.412s-0.229-0.11-0.463-0.115V3.314H76.454z"/>
	<path d="M78.38,3.971c0.26-0.261,0.414-0.41,0.461-0.449c0.117-0.099,0.244-0.176,0.379-0.23s0.27-0.082,0.402-0.082
		c0.224,0,0.417,0.065,0.578,0.195s0.27,0.319,0.324,0.566c0.268-0.312,0.495-0.518,0.68-0.615s0.375-0.146,0.57-0.146
		c0.19,0,0.359,0.049,0.506,0.146s0.264,0.257,0.35,0.479c0.057,0.151,0.086,0.388,0.086,0.711v1.539
		c0,0.224,0.017,0.378,0.051,0.461c0.026,0.058,0.074,0.106,0.145,0.146s0.185,0.061,0.344,0.061v0.141h-1.766V6.752h0.074
		c0.154,0,0.273-0.03,0.359-0.09c0.06-0.042,0.103-0.108,0.129-0.199c0.01-0.044,0.016-0.171,0.016-0.379V4.545
		c0-0.292-0.035-0.497-0.105-0.617c-0.102-0.167-0.264-0.25-0.488-0.25c-0.138,0-0.277,0.034-0.416,0.104s-0.308,0.197-0.506,0.385
		l-0.008,0.043l0.008,0.168v1.707c0,0.245,0.014,0.397,0.041,0.457s0.079,0.11,0.154,0.15s0.205,0.061,0.387,0.061v0.141h-1.809
		V6.752c0.198,0,0.334-0.023,0.408-0.07s0.125-0.117,0.154-0.211c0.013-0.044,0.02-0.173,0.02-0.387V4.545
		c0-0.292-0.043-0.501-0.129-0.629c-0.115-0.167-0.275-0.25-0.48-0.25c-0.141,0-0.28,0.038-0.418,0.113
		c-0.216,0.114-0.383,0.243-0.5,0.387v1.918c0,0.234,0.016,0.387,0.049,0.457s0.081,0.123,0.145,0.158s0.193,0.053,0.389,0.053
		v0.141h-1.77V6.752c0.164,0,0.279-0.018,0.344-0.053s0.115-0.091,0.148-0.168s0.051-0.226,0.051-0.447V4.717
		c0-0.394-0.012-0.647-0.035-0.762c-0.018-0.086-0.047-0.146-0.086-0.178s-0.092-0.049-0.16-0.049c-0.073,0-0.16,0.02-0.262,0.059
		l-0.059-0.141l1.078-0.438h0.168V3.971z"/>
	<path d="M85.567,6.377C85.2,6.661,84.97,6.825,84.876,6.869c-0.141,0.065-0.291,0.098-0.449,0.098
		c-0.248,0-0.451-0.085-0.611-0.254s-0.24-0.392-0.24-0.668c0-0.175,0.039-0.325,0.117-0.453c0.107-0.177,0.292-0.344,0.557-0.5
		s0.704-0.347,1.318-0.57V4.381c0-0.356-0.057-0.602-0.17-0.734s-0.278-0.199-0.494-0.199c-0.164,0-0.294,0.044-0.391,0.133
		c-0.099,0.089-0.148,0.19-0.148,0.305l0.008,0.227c0,0.12-0.031,0.212-0.092,0.277s-0.141,0.098-0.24,0.098
		c-0.096,0-0.175-0.034-0.236-0.102s-0.092-0.16-0.092-0.277c0-0.224,0.115-0.43,0.344-0.617s0.551-0.281,0.965-0.281
		c0.318,0,0.578,0.054,0.781,0.16c0.154,0.081,0.267,0.207,0.34,0.379c0.047,0.112,0.07,0.341,0.07,0.688V5.65
		c0,0.341,0.006,0.55,0.02,0.627s0.035,0.128,0.064,0.154s0.064,0.039,0.104,0.039c0.042,0,0.078-0.009,0.109-0.027
		c0.055-0.034,0.16-0.129,0.316-0.285v0.219c-0.292,0.391-0.57,0.586-0.836,0.586c-0.127,0-0.229-0.044-0.305-0.133
		S85.57,6.591,85.567,6.377z M85.567,6.123V4.76c-0.393,0.156-0.647,0.267-0.762,0.332c-0.206,0.114-0.353,0.234-0.441,0.359
		s-0.133,0.262-0.133,0.41c0,0.188,0.056,0.343,0.168,0.467s0.241,0.186,0.387,0.186C84.984,6.514,85.245,6.384,85.567,6.123z"/>
	<path d="M88.134,3.967c0.419-0.505,0.819-0.758,1.199-0.758c0.195,0,0.363,0.049,0.504,0.146s0.252,0.259,0.336,0.482
		c0.057,0.156,0.086,0.396,0.086,0.719v1.527c0,0.227,0.018,0.38,0.055,0.461c0.029,0.065,0.075,0.116,0.139,0.152
		s0.182,0.055,0.354,0.055v0.141h-1.77V6.752h0.074c0.167,0,0.283-0.025,0.35-0.076s0.113-0.126,0.139-0.225
		c0.01-0.039,0.016-0.161,0.016-0.367V4.619c0-0.325-0.042-0.562-0.127-0.709S89.26,3.689,89.06,3.689
		c-0.31,0-0.619,0.169-0.926,0.508v1.887c0,0.242,0.014,0.392,0.043,0.449c0.037,0.075,0.086,0.131,0.15,0.166
		s0.193,0.053,0.389,0.053v0.141h-1.77V6.752h0.078c0.182,0,0.305-0.046,0.369-0.139s0.096-0.269,0.096-0.529V4.756
		c0-0.43-0.01-0.691-0.029-0.785s-0.049-0.157-0.09-0.191s-0.094-0.051-0.162-0.051c-0.073,0-0.16,0.02-0.262,0.059l-0.059-0.141
		l1.078-0.438h0.168V3.967z"/>
</g>
<g>
	<path d="M42.461,9.475l0.137,1.672h-0.137c-0.138-0.417-0.316-0.73-0.535-0.941c-0.315-0.305-0.72-0.457-1.215-0.457
		c-0.674,0-1.188,0.267-1.539,0.801c-0.294,0.45-0.441,0.987-0.441,1.609c0,0.505,0.098,0.966,0.293,1.383s0.451,0.722,0.768,0.916
		s0.641,0.291,0.975,0.291c0.195,0,0.384-0.024,0.566-0.074s0.358-0.122,0.527-0.219v-1.531c0-0.266-0.02-0.439-0.061-0.521
		s-0.103-0.145-0.188-0.188s-0.234-0.064-0.447-0.064v-0.148h2.051v0.148h-0.098c-0.203,0-0.342,0.067-0.418,0.203
		c-0.052,0.097-0.078,0.286-0.078,0.57v1.621c-0.299,0.161-0.595,0.28-0.887,0.355s-0.616,0.113-0.973,0.113
		c-1.023,0-1.801-0.328-2.332-0.984c-0.398-0.492-0.598-1.06-0.598-1.703c0-0.466,0.112-0.913,0.336-1.34
		c0.266-0.508,0.63-0.898,1.094-1.172c0.388-0.227,0.846-0.34,1.375-0.34c0.193,0,0.368,0.016,0.525,0.047s0.381,0.101,0.67,0.207
		c0.146,0.055,0.244,0.082,0.293,0.082s0.092-0.022,0.127-0.068s0.057-0.135,0.064-0.268H42.461z"/>
	<path d="M44.18,12.662c-0.002,0.531,0.126,0.948,0.387,1.25s0.566,0.453,0.918,0.453c0.234,0,0.438-0.064,0.611-0.193
		s0.318-0.35,0.436-0.662l0.121,0.078c-0.055,0.356-0.213,0.682-0.477,0.975s-0.592,0.439-0.988,0.439
		c-0.43,0-0.797-0.167-1.104-0.502s-0.459-0.784-0.459-1.35c0-0.612,0.157-1.089,0.471-1.432s0.708-0.514,1.182-0.514
		c0.401,0,0.73,0.132,0.988,0.396s0.387,0.618,0.387,1.061H44.18z M44.18,12.436h1.656c-0.013-0.229-0.041-0.391-0.082-0.484
		c-0.065-0.146-0.162-0.261-0.291-0.344s-0.264-0.125-0.404-0.125c-0.216,0-0.41,0.084-0.58,0.252S44.209,12.136,44.18,12.436z"/>
	<path d="M48.172,11.967c0.419-0.505,0.819-0.758,1.199-0.758c0.195,0,0.363,0.049,0.504,0.146s0.252,0.259,0.336,0.482
		c0.057,0.156,0.086,0.396,0.086,0.719v1.527c0,0.227,0.018,0.38,0.055,0.461c0.029,0.065,0.075,0.116,0.139,0.152
		s0.182,0.055,0.354,0.055v0.141h-1.77v-0.141h0.074c0.167,0,0.283-0.025,0.35-0.076s0.113-0.126,0.139-0.225
		c0.01-0.039,0.016-0.161,0.016-0.367v-1.465c0-0.325-0.042-0.562-0.127-0.709s-0.227-0.221-0.428-0.221
		c-0.31,0-0.619,0.169-0.926,0.508v1.887c0,0.242,0.014,0.392,0.043,0.449c0.037,0.075,0.086,0.131,0.15,0.166
		s0.193,0.053,0.389,0.053v0.141h-1.77v-0.141h0.078c0.182,0,0.305-0.046,0.369-0.139s0.096-0.269,0.096-0.529v-1.328
		c0-0.43-0.01-0.691-0.029-0.785s-0.049-0.157-0.09-0.191s-0.094-0.051-0.162-0.051c-0.073,0-0.16,0.02-0.262,0.059l-0.059-0.141
		l1.078-0.438h0.168V11.967z"/>
	<path d="M52.879,11.209c0.542,0,0.977,0.206,1.305,0.617c0.279,0.352,0.418,0.755,0.418,1.211c0,0.32-0.077,0.645-0.23,0.973
		s-0.365,0.575-0.635,0.742s-0.57,0.25-0.9,0.25c-0.539,0-0.967-0.215-1.285-0.645c-0.268-0.362-0.402-0.769-0.402-1.219
		c0-0.328,0.082-0.654,0.244-0.979s0.377-0.563,0.643-0.719S52.583,11.209,52.879,11.209z M52.758,11.463
		c-0.138,0-0.277,0.041-0.416,0.123s-0.252,0.226-0.338,0.432s-0.129,0.47-0.129,0.793c0,0.521,0.104,0.97,0.311,1.348
		s0.48,0.566,0.818,0.566c0.252,0,0.461-0.104,0.625-0.312s0.246-0.566,0.246-1.074c0-0.636-0.137-1.136-0.41-1.5
		C53.28,11.588,53.045,11.463,52.758,11.463z"/>
	<path d="M56.192,11.971c0.26-0.261,0.414-0.41,0.461-0.449c0.117-0.099,0.244-0.176,0.379-0.23s0.27-0.082,0.402-0.082
		c0.224,0,0.417,0.065,0.578,0.195s0.27,0.319,0.324,0.566c0.268-0.312,0.495-0.518,0.68-0.615s0.375-0.146,0.57-0.146
		c0.19,0,0.359,0.049,0.506,0.146s0.264,0.257,0.35,0.479c0.057,0.151,0.086,0.388,0.086,0.711v1.539
		c0,0.224,0.017,0.378,0.051,0.461c0.026,0.058,0.074,0.106,0.145,0.146s0.185,0.061,0.344,0.061v0.141h-1.766v-0.141h0.074
		c0.154,0,0.273-0.03,0.359-0.09c0.06-0.042,0.103-0.108,0.129-0.199c0.01-0.044,0.016-0.171,0.016-0.379v-1.539
		c0-0.292-0.035-0.497-0.105-0.617c-0.102-0.167-0.264-0.25-0.488-0.25c-0.138,0-0.277,0.034-0.416,0.104s-0.308,0.197-0.506,0.385
		l-0.008,0.043l0.008,0.168v1.707c0,0.245,0.014,0.397,0.041,0.457s0.079,0.11,0.154,0.15s0.205,0.061,0.387,0.061v0.141h-1.809
		v-0.141c0.198,0,0.334-0.023,0.408-0.07s0.125-0.117,0.154-0.211c0.013-0.044,0.02-0.173,0.02-0.387v-1.539
		c0-0.292-0.043-0.501-0.129-0.629c-0.115-0.167-0.275-0.25-0.48-0.25c-0.141,0-0.28,0.038-0.418,0.113
		c-0.216,0.114-0.383,0.243-0.5,0.387v1.918c0,0.234,0.016,0.387,0.049,0.457s0.081,0.123,0.145,0.158s0.193,0.053,0.389,0.053
		v0.141h-1.77v-0.141c0.164,0,0.279-0.018,0.344-0.053s0.115-0.091,0.148-0.168s0.051-0.226,0.051-0.447v-1.367
		c0-0.394-0.012-0.647-0.035-0.762c-0.018-0.086-0.047-0.146-0.086-0.178s-0.092-0.049-0.16-0.049c-0.073,0-0.16,0.02-0.262,0.059
		l-0.059-0.141l1.078-0.438h0.168V11.971z"/>
	<path d="M61.954,12.662c-0.002,0.531,0.126,0.948,0.387,1.25s0.566,0.453,0.918,0.453c0.234,0,0.438-0.064,0.611-0.193
		s0.318-0.35,0.436-0.662l0.121,0.078c-0.055,0.356-0.213,0.682-0.477,0.975s-0.592,0.439-0.988,0.439
		c-0.43,0-0.797-0.167-1.104-0.502s-0.459-0.784-0.459-1.35c0-0.612,0.157-1.089,0.471-1.432s0.708-0.514,1.182-0.514
		c0.401,0,0.73,0.132,0.988,0.396s0.387,0.618,0.387,1.061H61.954z M61.954,12.436h1.656c-0.013-0.229-0.041-0.391-0.082-0.484
		c-0.065-0.146-0.162-0.261-0.291-0.344s-0.264-0.125-0.404-0.125c-0.216,0-0.41,0.084-0.58,0.252S61.982,12.136,61.954,12.436z"/>
	<path d="M72.251,14.893h-1.414l-1.793-2.477c-0.133,0.005-0.241,0.008-0.324,0.008c-0.034,0-0.07-0.001-0.109-0.002
		s-0.08-0.003-0.121-0.006v1.539c0,0.333,0.037,0.54,0.109,0.621c0.099,0.114,0.248,0.172,0.445,0.172h0.207v0.145h-2.27v-0.145
		h0.199c0.224,0,0.384-0.073,0.48-0.219c0.055-0.081,0.082-0.272,0.082-0.574v-3.422c0-0.333-0.037-0.54-0.109-0.621
		c-0.102-0.114-0.252-0.172-0.453-0.172h-0.199V9.596h1.93c0.562,0,0.977,0.041,1.244,0.123s0.494,0.233,0.68,0.453
		s0.279,0.482,0.279,0.787c0,0.325-0.106,0.608-0.318,0.848s-0.541,0.409-0.986,0.508l1.094,1.52
		c0.25,0.349,0.465,0.581,0.645,0.695s0.414,0.188,0.703,0.219V14.893z M68.489,12.17c0.049,0,0.092,0.001,0.129,0.002
		s0.066,0.002,0.09,0.002c0.505,0,0.886-0.109,1.143-0.328s0.385-0.497,0.385-0.836c0-0.331-0.104-0.6-0.311-0.807
		s-0.481-0.311-0.822-0.311c-0.151,0-0.355,0.024-0.613,0.074V12.17z"/>
	<path d="M73.032,12.662c-0.002,0.531,0.126,0.948,0.387,1.25s0.566,0.453,0.918,0.453c0.234,0,0.438-0.064,0.611-0.193
		s0.318-0.35,0.436-0.662l0.121,0.078c-0.055,0.356-0.213,0.682-0.477,0.975s-0.592,0.439-0.988,0.439
		c-0.43,0-0.797-0.167-1.104-0.502s-0.459-0.784-0.459-1.35c0-0.612,0.157-1.089,0.471-1.432s0.708-0.514,1.182-0.514
		c0.401,0,0.73,0.132,0.988,0.396s0.387,0.618,0.387,1.061H73.032z M73.032,12.436h1.656c-0.013-0.229-0.041-0.391-0.082-0.484
		c-0.065-0.146-0.162-0.261-0.291-0.344s-0.264-0.125-0.404-0.125c-0.216,0-0.41,0.084-0.58,0.252S73.061,12.136,73.032,12.436z"/>
	<path d="M78.294,11.209v1.219h-0.129c-0.099-0.383-0.226-0.644-0.381-0.781s-0.352-0.207-0.592-0.207
		c-0.182,0-0.33,0.048-0.441,0.145s-0.168,0.203-0.168,0.32c0,0.146,0.042,0.271,0.125,0.375c0.081,0.106,0.245,0.22,0.492,0.34
		l0.57,0.277c0.529,0.258,0.793,0.598,0.793,1.02c0,0.325-0.123,0.588-0.369,0.787s-0.521,0.299-0.826,0.299
		c-0.219,0-0.469-0.039-0.75-0.117c-0.086-0.026-0.156-0.039-0.211-0.039c-0.06,0-0.107,0.034-0.141,0.102h-0.129V13.67h0.129
		c0.073,0.364,0.212,0.64,0.418,0.824s0.436,0.277,0.691,0.277c0.18,0,0.326-0.053,0.439-0.158s0.17-0.232,0.17-0.381
		c0-0.18-0.063-0.331-0.189-0.453s-0.378-0.277-0.756-0.465s-0.625-0.356-0.742-0.508c-0.117-0.148-0.176-0.336-0.176-0.562
		c0-0.294,0.101-0.54,0.303-0.738s0.463-0.297,0.783-0.297c0.141,0,0.311,0.03,0.512,0.09c0.133,0.039,0.221,0.059,0.266,0.059
		c0.042,0,0.074-0.009,0.098-0.027s0.051-0.059,0.082-0.121H78.294z"/>
	<path d="M79.696,12.662c-0.002,0.531,0.126,0.948,0.387,1.25s0.566,0.453,0.918,0.453c0.234,0,0.438-0.064,0.611-0.193
		s0.318-0.35,0.436-0.662l0.121,0.078c-0.055,0.356-0.213,0.682-0.477,0.975s-0.592,0.439-0.988,0.439
		c-0.43,0-0.797-0.167-1.104-0.502s-0.459-0.784-0.459-1.35c0-0.612,0.157-1.089,0.471-1.432s0.708-0.514,1.182-0.514
		c0.401,0,0.73,0.132,0.988,0.396s0.387,0.618,0.387,1.061H79.696z M79.696,12.436h1.656c-0.013-0.229-0.041-0.391-0.082-0.484
		c-0.065-0.146-0.162-0.261-0.291-0.344s-0.264-0.125-0.404-0.125c-0.216,0-0.41,0.084-0.58,0.252S79.725,12.136,79.696,12.436z"/>
	<path d="M84.673,14.377c-0.367,0.284-0.598,0.448-0.691,0.492c-0.141,0.065-0.291,0.098-0.449,0.098
		c-0.248,0-0.451-0.085-0.611-0.254s-0.24-0.392-0.24-0.668c0-0.175,0.039-0.325,0.117-0.453c0.107-0.177,0.292-0.344,0.557-0.5
		s0.704-0.347,1.318-0.57v-0.141c0-0.356-0.057-0.602-0.17-0.734s-0.278-0.199-0.494-0.199c-0.164,0-0.294,0.044-0.391,0.133
		c-0.099,0.089-0.148,0.19-0.148,0.305l0.008,0.227c0,0.12-0.031,0.212-0.092,0.277s-0.141,0.098-0.24,0.098
		c-0.096,0-0.175-0.034-0.236-0.102s-0.092-0.16-0.092-0.277c0-0.224,0.115-0.43,0.344-0.617s0.551-0.281,0.965-0.281
		c0.318,0,0.578,0.054,0.781,0.16c0.154,0.081,0.267,0.207,0.34,0.379c0.047,0.112,0.07,0.341,0.07,0.688v1.215
		c0,0.341,0.006,0.55,0.02,0.627s0.035,0.128,0.064,0.154s0.064,0.039,0.104,0.039c0.042,0,0.078-0.009,0.109-0.027
		c0.055-0.034,0.16-0.129,0.316-0.285v0.219c-0.292,0.391-0.57,0.586-0.836,0.586c-0.127,0-0.229-0.044-0.305-0.133
		S84.675,14.591,84.673,14.377z M84.673,14.123V12.76c-0.393,0.156-0.647,0.267-0.762,0.332c-0.206,0.114-0.353,0.234-0.441,0.359
		s-0.133,0.262-0.133,0.41c0,0.188,0.056,0.343,0.168,0.467s0.241,0.186,0.387,0.186C84.089,14.514,84.35,14.384,84.673,14.123z"/>
	<path d="M87.243,11.209v0.805c0.299-0.536,0.607-0.805,0.922-0.805c0.143,0,0.262,0.044,0.355,0.131s0.141,0.188,0.141,0.303
		c0,0.102-0.034,0.188-0.102,0.258s-0.148,0.105-0.242,0.105c-0.091,0-0.193-0.045-0.307-0.135s-0.197-0.135-0.252-0.135
		c-0.047,0-0.098,0.026-0.152,0.078c-0.117,0.106-0.238,0.282-0.363,0.527v1.715c0,0.198,0.025,0.348,0.074,0.449
		c0.034,0.07,0.094,0.129,0.18,0.176s0.209,0.07,0.371,0.07v0.141h-1.832v-0.141c0.182,0,0.318-0.028,0.406-0.086
		c0.065-0.042,0.111-0.108,0.137-0.199c0.013-0.044,0.02-0.171,0.02-0.379v-1.387c0-0.417-0.008-0.665-0.025-0.744
		s-0.048-0.138-0.094-0.174s-0.102-0.055-0.17-0.055c-0.081,0-0.172,0.02-0.273,0.059l-0.039-0.141l1.082-0.438H87.243z"/>
	<path d="M91.899,13.533c-0.096,0.472-0.285,0.834-0.566,1.088s-0.592,0.381-0.934,0.381c-0.406,0-0.76-0.171-1.062-0.512
		s-0.453-0.802-0.453-1.383c0-0.562,0.167-1.02,0.502-1.371s0.736-0.527,1.205-0.527c0.352,0,0.641,0.093,0.867,0.279
		s0.34,0.38,0.34,0.58c0,0.099-0.032,0.179-0.096,0.24S91.549,12.4,91.435,12.4c-0.154,0-0.27-0.05-0.348-0.148
		c-0.044-0.055-0.074-0.159-0.088-0.312s-0.067-0.271-0.158-0.352c-0.091-0.078-0.217-0.117-0.379-0.117
		c-0.26,0-0.47,0.097-0.629,0.289c-0.211,0.255-0.316,0.593-0.316,1.012c0,0.427,0.105,0.804,0.314,1.131s0.493,0.49,0.85,0.49
		c0.255,0,0.484-0.087,0.688-0.262c0.143-0.12,0.283-0.337,0.418-0.652L91.899,13.533z"/>
	<path d="M93.462,9.338v2.617c0.289-0.317,0.518-0.521,0.688-0.611s0.338-0.135,0.508-0.135c0.203,0,0.377,0.056,0.523,0.168
		s0.254,0.288,0.324,0.527c0.049,0.167,0.074,0.472,0.074,0.914v1.266c0,0.227,0.018,0.382,0.055,0.465
		c0.026,0.062,0.07,0.112,0.133,0.148s0.177,0.055,0.344,0.055v0.141h-1.758v-0.141h0.082c0.167,0,0.283-0.025,0.348-0.076
		s0.111-0.126,0.137-0.225c0.008-0.042,0.012-0.164,0.012-0.367v-1.266c0-0.391-0.02-0.647-0.061-0.77s-0.105-0.214-0.193-0.275
		s-0.195-0.092-0.32-0.092c-0.127,0-0.26,0.034-0.398,0.102s-0.303,0.204-0.496,0.41v1.891c0,0.245,0.014,0.397,0.041,0.457
		s0.078,0.11,0.152,0.15s0.203,0.061,0.385,0.061v0.141h-1.773v-0.141c0.159,0,0.284-0.024,0.375-0.074
		c0.052-0.026,0.094-0.075,0.125-0.148s0.047-0.222,0.047-0.445v-3.238c0-0.409-0.01-0.66-0.029-0.754s-0.049-0.157-0.09-0.191
		S92.6,9.85,92.532,9.85c-0.055,0-0.143,0.021-0.266,0.062l-0.055-0.137l1.07-0.438H93.462z"/>
</g>
<g>
	<path d="M40.02,22.748v0.145h-2.27v-0.145h0.188c0.219,0,0.377-0.063,0.477-0.191c0.062-0.083,0.094-0.284,0.094-0.602v-3.422
		c0-0.269-0.017-0.445-0.051-0.531c-0.026-0.065-0.08-0.121-0.16-0.168c-0.115-0.062-0.234-0.094-0.359-0.094H37.75v-0.145h2.27
		v0.145h-0.191c-0.216,0-0.374,0.063-0.473,0.191c-0.065,0.083-0.098,0.284-0.098,0.602v3.422c0,0.269,0.017,0.445,0.051,0.531
		c0.026,0.065,0.081,0.121,0.164,0.168c0.112,0.062,0.23,0.094,0.355,0.094H40.02z"/>
	<path d="M41.508,19.967c0.419-0.505,0.819-0.758,1.199-0.758c0.195,0,0.363,0.049,0.504,0.146s0.252,0.259,0.336,0.482
		c0.057,0.156,0.086,0.396,0.086,0.719v1.527c0,0.227,0.018,0.38,0.055,0.461c0.029,0.065,0.075,0.116,0.139,0.152
		s0.182,0.055,0.354,0.055v0.141h-1.77v-0.141h0.074c0.167,0,0.283-0.025,0.35-0.076s0.113-0.126,0.139-0.225
		c0.01-0.039,0.016-0.161,0.016-0.367v-1.465c0-0.325-0.042-0.562-0.127-0.709s-0.227-0.221-0.428-0.221
		c-0.31,0-0.619,0.169-0.926,0.508v1.887c0,0.242,0.014,0.392,0.043,0.449c0.037,0.075,0.086,0.131,0.15,0.166
		s0.193,0.053,0.389,0.053v0.141h-1.77v-0.141h0.078c0.182,0,0.305-0.046,0.369-0.139s0.096-0.269,0.096-0.529v-1.328
		c0-0.43-0.01-0.691-0.029-0.785s-0.049-0.157-0.09-0.191s-0.094-0.051-0.162-0.051c-0.073,0-0.16,0.02-0.262,0.059l-0.059-0.141
		l1.078-0.438h0.168V19.967z"/>
	<path d="M46.778,19.209v1.219h-0.129c-0.099-0.383-0.226-0.644-0.381-0.781s-0.352-0.207-0.592-0.207
		c-0.182,0-0.33,0.048-0.441,0.145s-0.168,0.203-0.168,0.32c0,0.146,0.042,0.271,0.125,0.375c0.081,0.106,0.245,0.22,0.492,0.34
		l0.57,0.277c0.529,0.258,0.793,0.598,0.793,1.02c0,0.325-0.123,0.588-0.369,0.787s-0.521,0.299-0.826,0.299
		c-0.219,0-0.469-0.039-0.75-0.117c-0.086-0.026-0.156-0.039-0.211-0.039c-0.06,0-0.107,0.034-0.141,0.102h-0.129V21.67h0.129
		c0.073,0.364,0.212,0.64,0.418,0.824s0.436,0.277,0.691,0.277c0.18,0,0.326-0.053,0.439-0.158s0.17-0.232,0.17-0.381
		c0-0.18-0.063-0.331-0.189-0.453s-0.378-0.277-0.756-0.465s-0.625-0.356-0.742-0.508c-0.117-0.148-0.176-0.336-0.176-0.562
		c0-0.294,0.101-0.54,0.303-0.738s0.463-0.297,0.783-0.297c0.141,0,0.311,0.03,0.512,0.09c0.133,0.039,0.221,0.059,0.266,0.059
		c0.042,0,0.074-0.009,0.098-0.027s0.051-0.059,0.082-0.121H46.778z"/>
	<path d="M48.618,18.139v1.176h0.836v0.273h-0.836v2.32c0,0.231,0.033,0.388,0.1,0.469s0.152,0.121,0.256,0.121
		c0.086,0,0.169-0.026,0.25-0.08s0.143-0.132,0.188-0.236h0.152c-0.091,0.255-0.22,0.447-0.387,0.576s-0.338,0.193-0.516,0.193
		c-0.12,0-0.237-0.033-0.352-0.1s-0.199-0.161-0.254-0.285s-0.082-0.314-0.082-0.572v-2.406h-0.566v-0.129
		c0.143-0.058,0.29-0.154,0.439-0.291s0.283-0.299,0.4-0.486c0.06-0.099,0.143-0.28,0.25-0.543H48.618z"/>
	<path d="M51.036,19.209v2.875c0,0.224,0.016,0.373,0.049,0.447s0.081,0.13,0.145,0.166s0.18,0.055,0.35,0.055v0.141H49.84v-0.141
		c0.174,0,0.292-0.017,0.352-0.051s0.107-0.09,0.143-0.168s0.053-0.228,0.053-0.449v-1.379c0-0.388-0.012-0.64-0.035-0.754
		c-0.018-0.083-0.047-0.142-0.086-0.174s-0.092-0.049-0.16-0.049c-0.073,0-0.162,0.02-0.266,0.059l-0.055-0.141l1.078-0.438H51.036z
		 M50.711,17.338c0.109,0,0.203,0.038,0.279,0.115s0.115,0.17,0.115,0.279s-0.039,0.203-0.115,0.281s-0.17,0.117-0.279,0.117
		s-0.203-0.039-0.281-0.117s-0.117-0.172-0.117-0.281s0.039-0.202,0.115-0.279S50.6,17.338,50.711,17.338z"/>
	<path d="M53.063,18.139v1.176h0.836v0.273h-0.836v2.32c0,0.231,0.033,0.388,0.1,0.469s0.152,0.121,0.256,0.121
		c0.086,0,0.169-0.026,0.25-0.08s0.143-0.132,0.188-0.236h0.152c-0.091,0.255-0.22,0.447-0.387,0.576s-0.338,0.193-0.516,0.193
		c-0.12,0-0.237-0.033-0.352-0.1s-0.199-0.161-0.254-0.285s-0.082-0.314-0.082-0.572v-2.406h-0.566v-0.129
		c0.143-0.058,0.29-0.154,0.439-0.291s0.283-0.299,0.4-0.486c0.06-0.099,0.143-0.28,0.25-0.543H53.063z"/>
	<path d="M57.383,19.314v2.168c0,0.414,0.01,0.667,0.029,0.76s0.051,0.157,0.094,0.193s0.093,0.055,0.15,0.055
		c0.081,0,0.172-0.022,0.273-0.066l0.055,0.137l-1.07,0.441h-0.176v-0.758c-0.307,0.333-0.542,0.543-0.703,0.629
		s-0.332,0.129-0.512,0.129c-0.201,0-0.375-0.058-0.521-0.174s-0.25-0.265-0.307-0.447s-0.086-0.44-0.086-0.773V20.01
		c0-0.169-0.018-0.286-0.055-0.352s-0.09-0.115-0.162-0.15s-0.201-0.052-0.389-0.049v-0.145h1.254v2.395
		c0,0.333,0.058,0.552,0.174,0.656s0.256,0.156,0.42,0.156c0.112,0,0.239-0.035,0.381-0.105s0.311-0.204,0.506-0.402v-2.027
		c0-0.203-0.037-0.341-0.111-0.412s-0.229-0.11-0.463-0.115v-0.145H57.383z"/>
	<path d="M59.286,18.139v1.176h0.836v0.273h-0.836v2.32c0,0.231,0.033,0.388,0.1,0.469s0.152,0.121,0.256,0.121
		c0.086,0,0.169-0.026,0.25-0.08s0.143-0.132,0.188-0.236h0.152c-0.091,0.255-0.22,0.447-0.387,0.576s-0.338,0.193-0.516,0.193
		c-0.12,0-0.237-0.033-0.352-0.1s-0.199-0.161-0.254-0.285s-0.082-0.314-0.082-0.572v-2.406h-0.566v-0.129
		c0.143-0.058,0.29-0.154,0.439-0.291s0.283-0.299,0.4-0.486c0.06-0.099,0.143-0.28,0.25-0.543H59.286z"/>
	<path d="M61.071,20.662c-0.002,0.531,0.126,0.948,0.387,1.25s0.566,0.453,0.918,0.453c0.234,0,0.438-0.064,0.611-0.193
		s0.318-0.35,0.436-0.662l0.121,0.078c-0.055,0.356-0.213,0.682-0.477,0.975s-0.592,0.439-0.988,0.439
		c-0.43,0-0.797-0.167-1.104-0.502s-0.459-0.784-0.459-1.35c0-0.612,0.157-1.089,0.471-1.432s0.708-0.514,1.182-0.514
		c0.401,0,0.73,0.132,0.988,0.396s0.387,0.618,0.387,1.061H61.071z M61.071,20.436h1.656c-0.013-0.229-0.041-0.391-0.082-0.484
		c-0.065-0.146-0.162-0.261-0.291-0.344s-0.264-0.125-0.404-0.125c-0.216,0-0.41,0.084-0.58,0.252S61.1,20.136,61.071,20.436z"/>
</g>
</svg>
